<?xml version="1.0" encoding="UTF-8"?>
<svg width="512pt" height="512pt" version="1.1" viewBox="0 0 512 512" xmlns="http://www.w3.org/2000/svg">
 <g transform="translate(-195, -205) scale(1.8, 1.8)">
  <path d="m202.85 173.98c-0.011718 0.86719 0.50391 1.6641 1.3086 2.0039 0.80469 0.32812 1.7266 0.15234 2.3438-0.46484s0.79297-1.5352 0.46484-2.3438c-0.33984-0.80469-1.1328-1.3242-2.0039-1.3086-1.1602 0.011719-2.1016 0.95703-2.1172 2.1172z" fill="#512BD4"/>
  <path d="m173.73 201.04c0.011719 0.85547 0.54297 1.6367 1.3359 1.9531 0.79297 0.32812 1.7148 0.15234 2.3164-0.46484 0.61719-0.60547 0.79297-1.5234 0.46484-2.3164-0.31641-0.79297-1.0977-1.3242-1.9531-1.3359-0.57812-0.011719-1.1328 0.21484-1.5352 0.62891-0.41406 0.40234-0.64062 0.95703-0.62891 1.5352z" fill="#512BD4"/>
  <path d="m173.73 264.31c0.011719 0.85547 0.54297 1.6367 1.3359 1.9531 0.79297 0.32812 1.7148 0.15234 2.3164-0.46484 0.61719-0.60547 0.79297-1.5234 0.46484-2.3164-0.31641-0.79297-1.0977-1.3242-1.9531-1.3359-0.57812-0.011719-1.1328 0.21484-1.5352 0.62891-0.41406 0.40234-0.64062 0.95703-0.62891 1.5352z" fill="#512BD4"/>
  <path d="m202.85 324.37c-0.011718 0.86719 0.50391 1.6641 1.3086 2.0039 0.80469 0.32812 1.7266 0.15234 2.3438-0.46484s0.79297-1.5352 0.46484-2.3438c-0.33984-0.80469-1.1328-1.3242-2.0039-1.3086-1.1602 0.011719-2.1016 0.95703-2.1172 2.1172z" fill="#512BD4"/>
  <path d="m265.62 125.01c16.84-0.023438 31.426 11.664 35.066 28.113 0.32812 1.5234 1.3359 2.7969 2.7344 3.4766 1.3984 0.67969 3.0234 0.67969 4.4219 0 4.9102-2.418 10.305-3.6641 15.77-3.6758 12.418 0.011719 23.945 6.4883 30.441 17.066 6.4883 10.594 7.0156 23.793 1.3984 34.875-1.2109 2.3438-0.39062 5.2266 1.8633 6.6016 2.3789 1.4492 4.5859 3.1758 6.5508 5.1406 8.3633 8.3867 12.027 20.391 9.7734 32.016-2.2422 11.637-10.113 21.398-21.008 26.07-1.3711 0.59375-2.418 1.75-2.8711 3.1758-0.41406 1.4375-0.1875 2.9727 0.60547 4.2305 4.8242 7.4453 5.4141 16.852 1.5625 24.836-3.8555 7.9844-11.586 13.387-20.402 14.258-1.3984 0.16406-2.6719 0.89453-3.5273 2.0156-0.85547 1.1211-1.2109 2.543-0.95703 3.9297 0.44141 2.2031 0.66797 4.4453 0.65625 6.6992 0.039062 14.574-8.8281 27.695-22.371 33.102-2.1016 0.88281-4.3086 1.5508-6.5508 1.9648-1.3086 0.26562-2.457 1.0469-3.1758 2.168-1.3477 1.9531-2.8594 3.7656-4.5352 5.4414-6.6758 6.7266-15.77 10.492-25.242 10.48-8.4258-0.21484-15.09-7.1914-14.914-15.617v-230.74c-0.20312-8.3516 6.3594-15.316 14.711-15.617zm31.992 69.172c-0.20312-0.25-0.30078-0.50391-0.50391-0.75391-2.9961-2.9961-4.6836-7.0664-4.6836-11.309 0-4.2461 1.6875-8.3125 4.6836-11.309 1.9766-1.9766 1.9766-5.1758 0-7.1523-1.9766-1.9766-5.1758-1.9766-7.1523 0-6.2109 6.2461-8.8555 15.203-7.0547 23.832-0.98438-0.15234-1.9766-0.25-2.9727-0.30078-2.7852 0-5.0391 2.2539-5.0391 5.0391 0 2.7852 2.2539 5.0391 5.0391 5.0391 8.8438 0.023438 15.996 7.1797 16.02 16.02 0 2.7852 2.2539 5.0391 5.0391 5.0391 2.7852 0 5.0391-2.2539 5.0391-5.0391-0.011719-7.2539-3.0742-14.184-8.4141-19.094zm-0.15234 81.617c7.6445-0.011719 14.914-3.375 19.852-9.2188 4.332 3.0117 9.4844 4.6367 14.762 4.6367 2.7852 0 5.0391-2.2539 5.0391-5.0391 0-2.7852-2.2539-5.0391-5.0391-5.0391-4.2461 0-8.3125-1.6992-11.309-4.6992-2.9961-3.0117-4.6719-7.0781-4.6602-11.324 0-2.7852-2.2539-5.0391-5.0391-5.0391s-5.0391 2.2539-5.0391 5.0391c-0.011719 5.0508 1.4609 9.9883 4.2305 14.207-4.6484 6.1328-13 8.1094-19.902 4.6836-1.1953-0.60547-2.582-0.71875-3.8555-0.28906s-2.3164 1.3477-2.8984 2.5586c-1.2461 2.4805-0.25 5.4922 2.2148 6.75 3.6133 1.8125 7.5938 2.7695 11.637 2.7695zm-43.379 47.055c0.35156 1.2852 1.2109 2.3672 2.3789 3.0117 1.1602 0.65625 2.543 0.79297 3.8164 0.41406 4.082-1.1836 8.4648-0.69141 12.191 1.3594 3.7539 2.0156 6.5117 5.4805 7.6562 9.5742 0.074219 0.11328 0.15234 0.22656 0.20312 0.35156 0.74219 5.5664 3.2891 10.73 7.2539 14.711 0.93359 0.96875 2.2148 1.5117 3.5508 1.5117 1.3359 0 2.6211-0.54297 3.5508-1.5117 0.94531-0.94531 1.4727-2.2148 1.4727-3.5508 0-1.3359-0.52734-2.6055-1.4727-3.5508-2.9961-2.9961-4.6836-7.0664-4.6836-11.309 0-4.2461 1.6875-8.3125 4.6836-11.309 1.9648-1.9766 1.9648-5.1758 0-7.1523-0.94531-0.94531-2.2148-1.4727-3.5508-1.4727-1.3359 0-2.6055 0.52734-3.5508 1.4727-2.0781 2.1289-3.7773 4.5977-5.0391 7.3047-1.5625-1.5-3.3125-2.8086-5.1875-3.8789-6.0586-3.3516-13.199-4.1445-19.852-2.2148-1.2852 0.37891-2.3672 1.2344-3.0117 2.418-0.64063 1.1719-0.79297 2.543-0.41406 3.8281z" fill="#512BD4"/>
  <path d="m244.01 128.29c-2.0664 3.793-3.1484 8.0352-3.1758 12.344v58.344h-30.832v-13.906c5.2266-2.3672 8.0859-8.0742 6.8789-13.68-1.2109-5.6172-6.1719-9.6094-11.914-9.6094-5.7422 0-10.707 3.9922-11.914 9.6094-1.2109 5.6055 1.6484 11.309 6.8789 13.68v18.941c0.011718 2.7852 2.2539 5.0273 5.0391 5.0391h35.871v20h-59.902v-16.93c5.2539-2.3672 8.1484-8.0977 6.9258-13.73-1.2109-5.6445-6.1953-9.6719-11.965-9.6719-5.7695 0-10.758 4.0312-11.965 9.6719-1.2227 5.6289 1.6758 11.359 6.9258 13.73v21.965c0.011719 2.7852 2.2539 5.0273 5.0391 5.0391h64.941v20.152h-53.855c-2.3672-5.2266-8.0742-8.0859-13.68-6.8789-5.6172 1.2109-9.6211 6.1719-9.6211 11.914 0 5.7422 4.0039 10.707 9.6211 11.914 5.6055 1.2109 11.309-1.6484 13.68-6.8789h53.855v20h-35.871c-1.3359 0-2.6211 0.52734-3.5664 1.4727-0.94531 0.94531-1.4727 2.2305-1.4727 3.5664v18.895c-5.2539 2.3672-8.1484 8.0977-6.9258 13.73 1.2109 5.6445 6.1953 9.6719 11.965 9.6719s10.758-4.0312 11.965-9.6719c1.2227-5.6289-1.6758-11.359-6.9258-13.73v-13.855h30.832v71.941c0 3.6289 0.75391 7.2031 2.2148 10.531-42.371-4.293-79.789-29.461-99.73-67.098-19.938-37.621-19.773-82.711 0.45312-120.18 20.227-37.469 57.84-62.371 100.23-66.34zm-20.605 56.477c0 2.7852 2.2539 5.0391 5.0391 5.0391s5.0391-2.2539 5.0391-5.0391v-35.367c0-2.7852-2.2539-5.0391-5.0391-5.0391s-5.0391 2.2539-5.0391 5.0391zm0 175.23c0 2.7852 2.2539 5.0391 5.0391 5.0391s5.0391-2.2539 5.0391-5.0391v-48.266c0-2.7852-2.2539-5.0391-5.0391-5.0391s-5.0391 2.2539-5.0391 5.0391zm-66.352-60.559h18.844c2.7852 0 5.0391-2.2539 5.0391-5.0391s-2.2539-5.0391-5.0391-5.0391h-18.844c-2.7852 0-5.0391 2.2539-5.0391 5.0391s2.2539 5.0391 5.0391 5.0391zm-9.4219-50.883c1.3359 0 2.6211-0.52734 3.5664-1.4727 0.94531-0.94531 1.4727-2.2305 1.4727-3.5664v-18.844c0-2.7852-2.2539-5.0391-5.0391-5.0391s-5.0391 2.2539-5.0391 5.0391v18.844c0.011718 2.7852 2.2539 5.0273 5.0391 5.0391z" fill="#512BD4"/>
 </g>
</svg>
